<svg width="319" height="39" viewBox="0 0 319 39" fill="none" xmlns="http://www.w3.org/2000/svg">
<path d="M0 0.477272H2.20739L7.39773 13.1548H7.5767L12.767 0.477272H14.9744V15.75H13.2443V4.14631H13.0952L8.32244 15.75H6.65199L1.87926 4.14631H1.73011V15.75H0V0.477272Z" fill="black"/>
<path d="M53.478 15.75V0.477272H63.5902V3.13956H56.707V6.77876H62.919V9.44105H56.707V15.75H53.478Z" fill="black"/>
<path d="M65.5179 15.75V4.29545H68.5978V6.29403H68.7172C68.926 5.5831 69.2765 5.04616 69.7686 4.68324C70.2608 4.31534 70.8276 4.13139 71.4689 4.13139C71.628 4.13139 71.7995 4.14133 71.9835 4.16122C72.1674 4.18111 72.329 4.20845 72.4682 4.24325V7.06214C72.3191 7.0174 72.1127 6.97763 71.8493 6.94283C71.5858 6.90803 71.3446 6.89062 71.1259 6.89062C70.6586 6.89062 70.2409 6.99254 69.873 7.19638C69.5101 7.39524 69.2218 7.67365 69.008 8.0316C68.7992 8.38956 68.6948 8.8022 68.6948 9.26953V15.75H65.5179Z" fill="black"/>
<path d="M78.7529 15.9737C77.5945 15.9737 76.5928 15.7276 75.7476 15.2354C74.9074 14.7383 74.2586 14.0472 73.8012 13.1623C73.3438 12.2724 73.1151 11.2408 73.1151 10.0675C73.1151 8.88423 73.3438 7.85014 73.8012 6.9652C74.2586 6.07528 74.9074 5.38423 75.7476 4.89204C76.5928 4.39489 77.5945 4.14631 78.7529 4.14631C79.9113 4.14631 80.9106 4.39489 81.7508 4.89204C82.596 5.38423 83.2472 6.07528 83.7046 6.9652C84.162 7.85014 84.3907 8.88423 84.3907 10.0675C84.3907 11.2408 84.162 12.2724 83.7046 13.1623C83.2472 14.0472 82.596 14.7383 81.7508 15.2354C80.9106 15.7276 79.9113 15.9737 78.7529 15.9737ZM78.7678 13.5128C79.2948 13.5128 79.7348 13.3636 80.0878 13.0653C80.4408 12.7621 80.7068 12.3494 80.8857 11.8274C81.0697 11.3054 81.1617 10.7113 81.1617 10.0451C81.1617 9.37891 81.0697 8.7848 80.8857 8.26278C80.7068 7.74077 80.4408 7.32812 80.0878 7.02486C79.7348 6.72159 79.2948 6.56996 78.7678 6.56996C78.2359 6.56996 77.7884 6.72159 77.4255 7.02486C77.0676 7.32812 76.7966 7.74077 76.6127 8.26278C76.4337 8.7848 76.3442 9.37891 76.3442 10.0451C76.3442 10.7113 76.4337 11.3054 76.6127 11.8274C76.7966 12.3494 77.0676 12.7621 77.4255 13.0653C77.7884 13.3636 78.2359 13.5128 78.7678 13.5128Z" fill="black"/>
<path d="M89.6333 9.12784V15.75H86.4564V4.29545H89.4841V6.31641H89.6183C89.8719 5.65021 90.297 5.12322 90.8936 4.73544C91.4901 4.34268 92.2135 4.14631 93.0637 4.14631C93.8591 4.14631 94.5526 4.32031 95.1443 4.66832C95.7359 5.01633 96.1958 5.51349 96.5239 6.1598C96.852 6.80114 97.0161 7.56676 97.0161 8.45668V15.75H93.8392V9.02344C93.8442 8.32244 93.6652 7.77557 93.3023 7.38281C92.9394 6.98509 92.4397 6.78622 91.8034 6.78622C91.3758 6.78622 90.998 6.8782 90.6698 7.06214C90.3467 7.24609 90.0931 7.51456 89.9092 7.86754C89.7302 8.21555 89.6382 8.63565 89.6333 9.12784Z" fill="black"/>
<path d="M105.613 4.29545V6.68182H98.7145V4.29545H105.613ZM100.281 1.55114H103.457V12.2301C103.457 12.5234 103.502 12.7521 103.592 12.9162C103.681 13.0753 103.805 13.1871 103.964 13.2518C104.129 13.3164 104.317 13.3487 104.531 13.3487C104.68 13.3487 104.83 13.3363 104.979 13.3114C105.128 13.2816 105.242 13.2592 105.322 13.2443L105.821 15.6083C105.662 15.658 105.439 15.7152 105.15 15.7798C104.862 15.8494 104.511 15.8917 104.099 15.9066C103.333 15.9364 102.662 15.8345 102.085 15.6009C101.513 15.3672 101.069 15.0043 100.75 14.5121C100.432 14.0199 100.276 13.3984 100.281 12.6477V1.55114Z" fill="black"/>
<path d="M112.779 15.9737C111.601 15.9737 110.587 15.7351 109.737 15.2578C108.891 14.7756 108.24 14.0945 107.783 13.2145C107.325 12.3295 107.097 11.283 107.097 10.0749C107.097 8.89666 107.325 7.86257 107.783 6.97266C108.24 6.08274 108.884 5.3892 109.714 4.89204C110.549 4.39489 111.529 4.14631 112.652 4.14631C113.408 4.14631 114.112 4.26811 114.763 4.51172C115.419 4.75035 115.991 5.1108 116.478 5.59304C116.97 6.07528 117.353 6.68182 117.626 7.41264C117.9 8.13849 118.037 8.98864 118.037 9.96307V10.8356H108.364V8.86683H115.046C115.046 8.40945 114.947 8.00426 114.748 7.65128C114.549 7.2983 114.273 7.02237 113.92 6.82351C113.572 6.61967 113.167 6.51776 112.705 6.51776C112.222 6.51776 111.795 6.62962 111.422 6.85334C111.054 7.07209 110.766 7.3679 110.557 7.74077C110.348 8.10866 110.241 8.51882 110.236 8.97124V10.843C110.236 11.4098 110.341 11.8995 110.549 12.3121C110.763 12.7248 111.064 13.043 111.452 13.2667C111.839 13.4904 112.299 13.6023 112.831 13.6023C113.184 13.6023 113.507 13.5526 113.801 13.4531C114.094 13.3537 114.345 13.2045 114.554 13.0057C114.763 12.8068 114.922 12.5632 115.031 12.2749L117.969 12.4688C117.82 13.1747 117.515 13.7912 117.052 14.3182C116.595 14.8402 116.003 15.2479 115.277 15.5412C114.556 15.8295 113.724 15.9737 112.779 15.9737Z" fill="black"/>
<path d="M123.287 9.12784V15.75H120.11V4.29545H123.137V6.31641H123.272C123.525 5.65021 123.95 5.12322 124.547 4.73544C125.143 4.34268 125.867 4.14631 126.717 4.14631C127.512 4.14631 128.206 4.32031 128.798 4.66832C129.389 5.01633 129.849 5.51349 130.177 6.1598C130.505 6.80114 130.669 7.56676 130.669 8.45668V15.75H127.493V9.02344C127.498 8.32244 127.319 7.77557 126.956 7.38281C126.593 6.98509 126.093 6.78622 125.457 6.78622C125.029 6.78622 124.651 6.8782 124.323 7.06214C124 7.24609 123.746 7.51456 123.562 7.86754C123.384 8.21555 123.292 8.63565 123.287 9.12784Z" fill="black"/>
<path d="M137.394 15.9364C136.524 15.9364 135.736 15.7127 135.03 15.2653C134.329 14.8129 133.772 14.1491 133.36 13.2741C132.952 12.3942 132.748 11.3153 132.748 10.0376C132.748 8.72514 132.959 7.63388 133.382 6.76385C133.805 5.88885 134.366 5.23509 135.067 4.80256C135.773 4.36506 136.546 4.14631 137.387 4.14631C138.028 4.14631 138.562 4.25568 138.99 4.47443C139.423 4.68821 139.771 4.95668 140.034 5.27983C140.302 5.59801 140.506 5.91122 140.646 6.21946H140.742V0.477272H143.912V15.75H140.78V13.9155H140.646C140.496 14.2337 140.285 14.5494 140.012 14.8626C139.743 15.1708 139.393 15.4268 138.96 15.6307C138.533 15.8345 138.011 15.9364 137.394 15.9364ZM138.401 13.4084C138.913 13.4084 139.345 13.2692 139.698 12.9908C140.056 12.7074 140.33 12.3121 140.519 11.805C140.713 11.2979 140.81 10.7038 140.81 10.0227C140.81 9.34162 140.715 8.75 140.526 8.24787C140.337 7.74574 140.064 7.35795 139.706 7.08452C139.348 6.81108 138.913 6.67436 138.401 6.67436C137.879 6.67436 137.439 6.81605 137.081 7.09943C136.723 7.38281 136.452 7.77557 136.268 8.2777C136.084 8.77983 135.992 9.36151 135.992 10.0227C135.992 10.6889 136.084 11.2781 136.268 11.7901C136.457 12.2972 136.728 12.695 137.081 12.9833C137.439 13.2667 137.879 13.4084 138.401 13.4084Z" fill="black"/>
<path d="M151.444 0.477272H155.426L159.632 10.7386H159.811L164.017 0.477272H167.999V15.75H164.867V5.8093H164.74L160.788 15.6754H158.655L154.703 5.77202H154.576V15.75H151.444V0.477272Z" fill="black"/>
<path d="M175.82 15.9737C174.642 15.9737 173.628 15.7351 172.778 15.2578C171.932 14.7756 171.281 14.0945 170.824 13.2145C170.366 12.3295 170.138 11.283 170.138 10.0749C170.138 8.89666 170.366 7.86257 170.824 6.97266C171.281 6.08274 171.925 5.3892 172.755 4.89204C173.59 4.39489 174.57 4.14631 175.693 4.14631C176.449 4.14631 177.153 4.26811 177.804 4.51172C178.46 4.75035 179.032 5.1108 179.519 5.59304C180.011 6.07528 180.394 6.68182 180.667 7.41264C180.941 8.13849 181.078 8.98864 181.078 9.96307V10.8356H171.405V8.86683H178.087C178.087 8.40945 177.988 8.00426 177.789 7.65128C177.59 7.2983 177.314 7.02237 176.961 6.82351C176.613 6.61967 176.208 6.51776 175.746 6.51776C175.263 6.51776 174.836 6.62962 174.463 6.85334C174.095 7.07209 173.807 7.3679 173.598 7.74077C173.389 8.10866 173.282 8.51882 173.277 8.97124V10.843C173.277 11.4098 173.382 11.8995 173.59 12.3121C173.804 12.7248 174.105 13.043 174.493 13.2667C174.881 13.4904 175.34 13.6023 175.872 13.6023C176.225 13.6023 176.548 13.5526 176.842 13.4531C177.135 13.3537 177.386 13.2045 177.595 13.0057C177.804 12.8068 177.963 12.5632 178.072 12.2749L181.01 12.4688C180.861 13.1747 180.556 13.7912 180.093 14.3182C179.636 14.8402 179.044 15.2479 178.318 15.5412C177.597 15.8295 176.765 15.9737 175.82 15.9737Z" fill="black"/>
<path d="M186.328 9.12784V15.75H183.151V4.29545H186.178V6.31641H186.313C186.566 5.65021 186.991 5.12322 187.588 4.73544C188.184 4.34268 188.908 4.14631 189.758 4.14631C190.553 4.14631 191.247 4.32031 191.839 4.66832C192.43 5.01633 192.89 5.51349 193.218 6.1598C193.546 6.80114 193.71 7.56676 193.71 8.45668V15.75H190.534V9.02344C190.539 8.32244 190.36 7.77557 189.997 7.38281C189.634 6.98509 189.134 6.78622 188.498 6.78622C188.07 6.78622 187.692 6.8782 187.364 7.06214C187.041 7.24609 186.787 7.51456 186.604 7.86754C186.425 8.21555 186.333 8.63565 186.328 9.12784Z" fill="black"/>
<path d="M202.307 4.29545V6.68182H195.409V4.29545H202.307ZM196.975 1.55114H200.152V12.2301C200.152 12.5234 200.196 12.7521 200.286 12.9162C200.375 13.0753 200.5 13.1871 200.659 13.2518C200.823 13.3164 201.012 13.3487 201.226 13.3487C201.375 13.3487 201.524 13.3363 201.673 13.3114C201.822 13.2816 201.937 13.2592 202.016 13.2443L202.516 15.6083C202.357 15.658 202.133 15.7152 201.845 15.7798C201.556 15.8494 201.206 15.8917 200.793 15.9066C200.027 15.9364 199.356 15.8345 198.78 15.6009C198.208 15.3672 197.763 15.0043 197.445 14.5121C197.127 14.0199 196.97 13.3984 196.975 12.6477V1.55114Z" fill="black"/>
<path d="M209.429 15.9737C208.27 15.9737 207.269 15.7276 206.423 15.2354C205.583 14.7383 204.934 14.0472 204.477 13.1623C204.02 12.2724 203.791 11.2408 203.791 10.0675C203.791 8.88423 204.02 7.85014 204.477 6.9652C204.934 6.07528 205.583 5.38423 206.423 4.89204C207.269 4.39489 208.27 4.14631 209.429 4.14631C210.587 4.14631 211.586 4.39489 212.427 4.89204C213.272 5.38423 213.923 6.07528 214.38 6.9652C214.838 7.85014 215.066 8.88423 215.066 10.0675C215.066 11.2408 214.838 12.2724 214.38 13.1623C213.923 14.0472 213.272 14.7383 212.427 15.2354C211.586 15.7276 210.587 15.9737 209.429 15.9737ZM209.444 13.5128C209.971 13.5128 210.411 13.3636 210.764 13.0653C211.117 12.7621 211.383 12.3494 211.562 11.8274C211.745 11.3054 211.837 10.7113 211.837 10.0451C211.837 9.37891 211.745 8.7848 211.562 8.26278C211.383 7.74077 211.117 7.32812 210.764 7.02486C210.411 6.72159 209.971 6.56996 209.444 6.56996C208.912 6.56996 208.464 6.72159 208.101 7.02486C207.743 7.32812 207.472 7.74077 207.288 8.26278C207.109 8.7848 207.02 9.37891 207.02 10.0451C207.02 10.7113 207.109 11.3054 207.288 11.8274C207.472 12.3494 207.743 12.7621 208.101 13.0653C208.464 13.3636 208.912 13.5128 209.444 13.5128Z" fill="black"/>
<path d="M217.132 15.75V4.29545H220.212V6.29403H220.331C220.54 5.5831 220.891 5.04616 221.383 4.68324C221.875 4.31534 222.442 4.13139 223.083 4.13139C223.242 4.13139 223.414 4.14133 223.598 4.16122C223.782 4.18111 223.943 4.20845 224.082 4.24325V7.06214C223.933 7.0174 223.727 6.97763 223.464 6.94283C223.2 6.90803 222.959 6.89062 222.74 6.89062C222.273 6.89062 221.855 6.99254 221.487 7.19638C221.124 7.39524 220.836 7.67365 220.622 8.0316C220.413 8.38956 220.309 8.8022 220.309 9.26953V15.75H217.132Z" fill="black"/>
<path d="M240.088 6.8608L238.507 7.30824C238.407 7.04474 238.261 6.78871 238.067 6.54013C237.878 6.28658 237.619 6.07777 237.291 5.91371C236.963 5.74964 236.543 5.66761 236.031 5.66761C235.33 5.66761 234.746 5.82919 234.279 6.15234C233.816 6.47053 233.585 6.87571 233.585 7.3679C233.585 7.8054 233.744 8.15092 234.062 8.40447C234.38 8.65803 234.878 8.86932 235.554 9.03835L237.254 9.45597C238.278 9.70455 239.041 10.0849 239.544 10.5969C240.046 11.104 240.297 11.7578 240.297 12.5582C240.297 13.2145 240.108 13.8011 239.73 14.3182C239.357 14.8352 238.835 15.2429 238.164 15.5412C237.493 15.8395 236.712 15.9886 235.822 15.9886C234.654 15.9886 233.687 15.7351 232.921 15.228C232.156 14.7209 231.671 13.9801 231.467 13.0057L233.138 12.5881C233.297 13.2045 233.597 13.6669 234.04 13.9751C234.487 14.2834 235.072 14.4375 235.792 14.4375C236.613 14.4375 237.264 14.2635 237.746 13.9155C238.233 13.5625 238.477 13.1399 238.477 12.6477C238.477 12.25 238.338 11.9169 238.059 11.6484C237.781 11.375 237.354 11.1712 236.777 11.0369L234.868 10.5895C233.819 10.3409 233.048 9.95561 232.556 9.43359C232.069 8.9066 231.825 8.24787 231.825 7.45739C231.825 6.81108 232.007 6.23935 232.369 5.74219C232.737 5.24503 233.237 4.85476 233.868 4.57138C234.505 4.288 235.226 4.14631 236.031 4.14631C237.165 4.14631 238.055 4.39489 238.701 4.89204C239.352 5.3892 239.814 6.04545 240.088 6.8608Z" fill="black"/>
<path d="M247.599 15.9886C246.565 15.9886 245.658 15.7425 244.877 15.2504C244.102 14.7582 243.495 14.0696 243.058 13.1847C242.625 12.2997 242.409 11.2656 242.409 10.0824C242.409 8.8892 242.625 7.84766 243.058 6.95774C243.495 6.06783 244.102 5.37678 244.877 4.88459C245.658 4.3924 246.565 4.14631 247.599 4.14631C248.633 4.14631 249.538 4.3924 250.314 4.88459C251.094 5.37678 251.701 6.06783 252.133 6.95774C252.571 7.84766 252.79 8.8892 252.79 10.0824C252.79 11.2656 252.571 12.2997 252.133 13.1847C251.701 14.0696 251.094 14.7582 250.314 15.2504C249.538 15.7425 248.633 15.9886 247.599 15.9886ZM247.599 14.4077C248.385 14.4077 249.031 14.2063 249.538 13.8036C250.045 13.4009 250.421 12.8714 250.664 12.2152C250.908 11.5589 251.03 10.848 251.03 10.0824C251.03 9.31676 250.908 8.60334 250.664 7.94212C250.421 7.28089 250.045 6.74645 249.538 6.33878C249.031 5.93111 248.385 5.72727 247.599 5.72727C246.814 5.72727 246.168 5.93111 245.66 6.33878C245.153 6.74645 244.778 7.28089 244.534 7.94212C244.291 8.60334 244.169 9.31676 244.169 10.0824C244.169 10.848 244.291 11.5589 244.534 12.2152C244.778 12.8714 245.153 13.4009 245.66 13.8036C246.168 14.2063 246.814 14.4077 247.599 14.4077Z" fill="black"/>
<path d="M257.236 0.477272V15.75H255.476V0.477272H257.236Z" fill="black"/>
<path d="M267.678 11.0668V4.29545H269.438V15.75H267.678V13.8111H267.559C267.291 14.3928 266.873 14.8874 266.306 15.2951C265.739 15.6978 265.024 15.8991 264.158 15.8991C263.443 15.8991 262.806 15.7425 262.249 15.4293C261.693 15.1112 261.255 14.6339 260.937 13.9975C260.619 13.3562 260.46 12.5483 260.46 11.5739V4.29545H262.22V11.4545C262.22 12.2898 262.453 12.956 262.921 13.4531C263.393 13.9503 263.994 14.1989 264.725 14.1989C265.163 14.1989 265.608 14.087 266.06 13.8633C266.517 13.6396 266.9 13.2965 267.209 12.8342C267.522 12.3718 267.678 11.7827 267.678 11.0668Z" fill="black"/>
<path d="M277.643 4.29545V5.78693H271.707V4.29545H277.643ZM273.437 1.55114H275.197V12.4688C275.197 12.9659 275.269 13.3388 275.414 13.5874C275.563 13.831 275.752 13.995 275.98 14.0795C276.214 14.1591 276.46 14.1989 276.719 14.1989C276.912 14.1989 277.072 14.1889 277.196 14.169C277.32 14.1442 277.42 14.1243 277.494 14.1094L277.852 15.6903C277.733 15.7351 277.566 15.7798 277.352 15.8246C277.139 15.8743 276.868 15.8991 276.54 15.8991C276.042 15.8991 275.555 15.7923 275.078 15.5785C274.606 15.3647 274.213 15.0391 273.9 14.6016C273.591 14.1641 273.437 13.6122 273.437 12.946V1.55114Z" fill="black"/>
<path d="M280.291 15.75V4.29545H282.051V15.75H280.291ZM281.186 2.38636C280.843 2.38636 280.547 2.26953 280.298 2.03587C280.055 1.8022 279.933 1.52131 279.933 1.19318C279.933 0.865057 280.055 0.584162 280.298 0.350497C280.547 0.116832 280.843 0 281.186 0C281.529 0 281.822 0.116832 282.066 0.350497C282.314 0.584162 282.438 0.865057 282.438 1.19318C282.438 1.52131 282.314 1.8022 282.066 2.03587C281.822 2.26953 281.529 2.38636 281.186 2.38636Z" fill="black"/>
<path d="M289.927 15.9886C288.893 15.9886 287.986 15.7425 287.206 15.2504C286.43 14.7582 285.823 14.0696 285.386 13.1847C284.953 12.2997 284.737 11.2656 284.737 10.0824C284.737 8.8892 284.953 7.84766 285.386 6.95774C285.823 6.06783 286.43 5.37678 287.206 4.88459C287.986 4.3924 288.893 4.14631 289.927 4.14631C290.962 4.14631 291.866 4.3924 292.642 4.88459C293.423 5.37678 294.029 6.06783 294.462 6.95774C294.899 7.84766 295.118 8.8892 295.118 10.0824C295.118 11.2656 294.899 12.2997 294.462 13.1847C294.029 14.0696 293.423 14.7582 292.642 15.2504C291.866 15.7425 290.962 15.9886 289.927 15.9886ZM289.927 14.4077C290.713 14.4077 291.359 14.2063 291.866 13.8036C292.373 13.4009 292.749 12.8714 292.992 12.2152C293.236 11.5589 293.358 10.848 293.358 10.0824C293.358 9.31676 293.236 8.60334 292.992 7.94212C292.749 7.28089 292.373 6.74645 291.866 6.33878C291.359 5.93111 290.713 5.72727 289.927 5.72727C289.142 5.72727 288.496 5.93111 287.989 6.33878C287.481 6.74645 287.106 7.28089 286.862 7.94212C286.619 8.60334 286.497 9.31676 286.497 10.0824C286.497 10.848 286.619 11.5589 286.862 12.2152C287.106 12.8714 287.481 13.4009 287.989 13.8036C288.496 14.2063 289.142 14.4077 289.927 14.4077Z" fill="black"/>
<path d="M299.564 8.85938V15.75H297.804V4.29545H299.505V6.08523H299.654C299.922 5.50355 300.33 5.03622 300.877 4.68324C301.424 4.32528 302.13 4.14631 302.995 4.14631C303.77 4.14631 304.449 4.3054 305.031 4.62358C305.612 4.93679 306.065 5.41406 306.388 6.0554C306.711 6.69176 306.873 7.49716 306.873 8.47159V15.75H305.113V8.59091C305.113 7.69105 304.879 6.99006 304.412 6.48793C303.944 5.98082 303.303 5.72727 302.488 5.72727C301.926 5.72727 301.424 5.84908 300.981 6.09268C300.544 6.33629 300.198 6.69176 299.945 7.15909C299.691 7.62642 299.564 8.19318 299.564 8.85938Z" fill="black"/>
<path d="M318.202 6.8608L316.621 7.30824C316.522 7.04474 316.375 6.78871 316.181 6.54013C315.992 6.28658 315.734 6.07777 315.406 5.91371C315.078 5.74964 314.657 5.66761 314.145 5.66761C313.444 5.66761 312.86 5.82919 312.393 6.15234C311.93 6.47053 311.699 6.87571 311.699 7.3679C311.699 7.8054 311.858 8.15092 312.177 8.40447C312.495 8.65803 312.992 8.86932 313.668 9.03835L315.368 9.45597C316.392 9.70455 317.156 10.0849 317.658 10.5969C318.16 11.104 318.411 11.7578 318.411 12.5582C318.411 13.2145 318.222 13.8011 317.844 14.3182C317.471 14.8352 316.949 15.2429 316.278 15.5412C315.607 15.8395 314.826 15.9886 313.937 15.9886C312.768 15.9886 311.801 15.7351 311.036 15.228C310.27 14.7209 309.785 13.9801 309.581 13.0057L311.252 12.5881C311.411 13.2045 311.712 13.6669 312.154 13.9751C312.602 14.2834 313.186 14.4375 313.907 14.4375C314.727 14.4375 315.378 14.2635 315.861 13.9155C316.348 13.5625 316.591 13.1399 316.591 12.6477C316.591 12.25 316.452 11.9169 316.174 11.6484C315.895 11.375 315.468 11.1712 314.891 11.0369L312.982 10.5895C311.933 10.3409 311.162 9.95561 310.67 9.43359C310.183 8.9066 309.939 8.24787 309.939 7.45739C309.939 6.81108 310.121 6.23935 310.484 5.74219C310.852 5.24503 311.351 4.85476 311.983 4.57138C312.619 4.288 313.34 4.14631 314.145 4.14631C315.279 4.14631 316.169 4.39489 316.815 4.89204C317.466 5.3892 317.929 6.04545 318.202 6.8608Z" fill="black"/>
<path d="M32.1506 1.75V31.4692C32.1506 31.9878 32.087 32.5044 31.9612 33.0075L31.9155 33.1901C31.7407 33.8897 31.4277 34.5471 30.9951 35.124V35.124C30.4413 35.8624 29.7078 36.4468 28.8644 36.8217L28.3015 37.0718C26.6166 37.8206 24.6907 37.807 23.0166 37.0343V37.0343C22.6071 36.8453 22.2186 36.6135 21.8578 36.3429L21.6841 36.2126C20.84 35.5796 20.1549 34.7587 19.6831 33.815L19.6161 33.681C19.4727 33.3943 19.3563 33.0949 19.2682 32.7866V32.7866C19.0271 31.9427 19.0041 31.0514 19.2015 30.1962L19.3209 29.6785C19.5363 28.745 20.0098 27.8908 20.6872 27.2133L21.3758 26.5248C22.6985 25.2021 24.7709 24.9969 26.3273 26.0345V26.0345C26.5423 26.1778 26.7426 26.342 26.9253 26.5248L28.1506 27.75L29.515 29.4555C29.9376 29.9838 30.4124 30.4682 30.9322 30.9014V30.9014C34.0861 33.5296 38.5194 33.981 42.1383 32.0423L42.4416 31.8798C42.9136 31.627 43.3657 31.3387 43.794 31.0174L48.1506 27.75L52.1506 24.25L54.1506 22.25L56.1506 20.25L59.6506 23.75L63.6506 20.25L67.6506 23.75L71.1506 20.25L75.6506 23.75L78.6506 20.25L82.6506 23.75L86.6506 20.25L90.1506 23.75L94.1506 20.25L97.6506 23.75L101.651 20.25L105.651 23.75L109.151 20.25L113.151 23.75L116.651 20.25L120.651 23.75L124.151 20.25L128.651 23.75" stroke="#67BECE" stroke-width="2.1"/>
<path d="M52.1506 24.25L54.1506 22.25L56.1506 20.25L59.6506 23.75L63.6506 20.25L67.6506 23.75L71.1506 20.25L75.6506 23.75L78.6506 20.25L82.6506 23.75L86.6506 20.25L90.1506 23.75L94.1506 20.25L97.6506 23.75L101.651 20.25L105.651 23.75L109.151 20.25L113.151 23.75L116.651 20.25L120.651 23.75L124.151 20.25L128.651 23.75L133.151 20.25L137.651 23.75L141.151 20.25" stroke="#F9C7C5" stroke-width="2.1"/>
<path d="M19.1506 1.75V7.12821C19.1506 8.20534 19.2827 9.2784 19.5439 10.3234L19.6198 10.6268C19.9705 12.0297 20.5821 13.3541 21.4226 14.5309V14.5309C22.2345 15.6675 23.2462 16.6471 24.4084 17.4219L25.3661 18.0604C26.5505 18.8499 27.8348 19.4781 29.1851 19.9282V19.9282C30.8181 20.4725 32.5281 20.75 34.2494 20.75H35.1506" stroke="#3F54A3" stroke-width="2.1"/>
<path d="M42.6506 5.25L36.6506 8.25L42.6506 11.25" stroke="#67BECE" stroke-width="2.1"/>
</svg>
