<svg width="220" height="38" viewBox="0 0 220 38" fill="none" xmlns="http://www.w3.org/2000/svg">
<g clip-path="url(#clip0_427_1660)">
<path d="M37.4098 16.5813C37.5914 16.5778 37.7713 16.6158 37.9355 16.6922C38.0997 16.7686 38.2437 16.8813 38.3562 17.0216C38.4687 17.1619 38.5467 17.326 38.5841 17.5009C38.6215 17.6758 38.6173 17.8568 38.5718 18.0299C35.779 28.6018 26.0642 35.9864 14.9521 35.9864C14.6397 35.9864 14.3402 35.8643 14.1194 35.647C13.8985 35.4296 13.7745 35.1348 13.7745 34.8274C13.7745 34.5201 13.8985 34.2253 14.1194 34.0079C14.3402 33.7906 14.6397 33.6684 14.9521 33.6684C19.8316 33.6701 24.5739 32.0785 28.4359 29.1431C32.2979 26.2077 35.0614 22.0943 36.2935 17.4474C36.3582 17.203 36.5023 16.9861 36.7038 16.8297C36.9053 16.6734 37.1532 16.5861 37.4098 16.5813Z" fill="#3F54A1"/>
<path d="M19.8488 2.36073C19.6326 2.14398 19.3386 2.01942 19.03 2.01386C18.8736 2.01108 18.7182 2.03917 18.5728 2.09617C18.4275 2.15317 18.2952 2.2381 18.1836 2.346C18.0719 2.4539 17.9833 2.58261 17.9228 2.72461C17.8623 2.8666 17.8311 3.01904 17.8312 3.17302V25.2034C17.8312 25.5107 17.9552 25.8054 18.176 26.0228C18.3967 26.2401 18.6962 26.3623 19.0084 26.3624C19.3208 26.3624 19.6203 26.2402 19.8411 26.0229C20.062 25.8055 20.186 25.5107 20.186 25.2034V3.17286C20.1861 2.86911 20.065 2.57749 19.8488 2.36073Z" fill="#7AC5D2"/>
<path d="M1.6594 8.71373C1.51918 8.65236 1.36814 8.61848 1.21475 8.61398C0.981663 8.60753 0.75186 8.669 0.554314 8.79093C0.356768 8.91285 0.200327 9.08962 0.104721 9.29893C-0.0215702 9.5796 -0.0298882 9.89806 0.0815754 10.1847C0.193039 10.4714 0.41523 10.7031 0.699631 10.8291L8.39902 14.212L0.699631 17.6072C0.45294 17.715 0.251373 17.9029 0.128675 18.1396C0.00597763 18.3762 -0.0304012 18.6471 0.025629 18.907C0.0816612 19.1669 0.226704 19.3999 0.436468 19.5671C0.646233 19.7343 0.907986 19.8255 1.17791 19.8254C1.34393 19.8247 1.50796 19.7898 1.6594 19.7228L11.7659 15.2683C11.9728 15.1764 12.1483 15.0277 12.2715 14.8401C12.3946 14.6525 12.4601 14.4339 12.4601 14.2105C12.4601 13.9872 12.3946 13.7685 12.2715 13.5809C12.1483 13.3933 11.9728 13.2446 11.7659 13.1528L1.6594 8.71373Z" fill="#7AC5D2"/>
</g>
<path d="M65.8149 2.38318C65.919 2.26024 66.0439 2.19877 66.1896 2.19877H68.563C68.7712 2.19877 68.8753 2.30122 68.8753 2.50612V23.4061C68.8753 23.611 68.7712 23.7135 68.563 23.7135H66.1896C65.9814 23.7135 65.8773 23.611 65.8773 23.4061V7.66965C65.8773 7.60818 65.8565 7.5672 65.8149 7.54671C65.7732 7.52622 65.742 7.54671 65.7212 7.60818L61.2556 14.3085C61.1723 14.4314 61.0474 14.4929 60.8808 14.4929H59.6941C59.5484 14.4929 59.4235 14.4314 59.3194 14.3085L54.8225 7.66965C54.8017 7.60818 54.7705 7.58769 54.7288 7.60818C54.6872 7.62867 54.6664 7.66965 54.6664 7.73112V23.4061C54.6664 23.611 54.5623 23.7135 54.3541 23.7135H51.9807C51.7726 23.7135 51.6685 23.611 51.6685 23.4061V2.50612C51.6685 2.30122 51.7726 2.19877 51.9807 2.19877H54.3541C54.5206 2.19877 54.6456 2.26024 54.7288 2.38318L60.1938 10.4358C60.2146 10.4563 60.2458 10.4666 60.2875 10.4666C60.3291 10.4666 60.3603 10.4563 60.3812 10.4358L65.8149 2.38318Z" fill="#1C2122"/>
<path d="M73.1487 29.8298C73.0029 29.8298 72.9301 29.7273 72.9301 29.5224V27.7091C72.9301 27.5042 73.0342 27.4017 73.2423 27.4017H73.3048C74.1376 27.3812 74.7933 27.2788 75.2722 27.0944C75.751 26.9099 76.1466 26.5616 76.4589 26.0494C76.7711 25.5576 77.073 24.8097 77.3645 23.8057C77.3853 23.7852 77.3853 23.7545 77.3645 23.7135C77.3645 23.652 77.3645 23.6213 77.3645 23.6213L72.1494 8.4073L72.1181 8.28436C72.1181 8.14093 72.2118 8.06921 72.3992 8.06921H74.9287C75.116 8.06921 75.241 8.15117 75.3034 8.31509L78.8322 19.9023C78.853 19.9433 78.8843 19.9638 78.9259 19.9638C78.9675 19.9638 78.9988 19.9433 79.0196 19.9023L82.5172 8.31509C82.5796 8.15117 82.7045 8.06921 82.8919 8.06921H85.3589C85.5879 8.06921 85.6712 8.18191 85.6088 8.4073L79.9252 24.7892C79.4464 26.203 78.9675 27.248 78.4887 27.9242C78.0099 28.6209 77.3853 29.1126 76.615 29.3995C75.8447 29.6864 74.7621 29.8298 73.3673 29.8298H73.1487Z" fill="#1C2122"/>
<path d="M101.841 23.9594C100.238 23.9594 98.8427 23.7135 97.6561 23.2217C96.4902 22.7299 95.5846 22.0333 94.9392 21.1317C94.3146 20.2301 94.0023 19.1749 94.0023 17.966V17.0747C94.0023 16.8697 94.1064 16.7673 94.3146 16.7673H96.5943C96.8025 16.7673 96.9066 16.8697 96.9066 17.0747V17.8123C96.9066 18.8573 97.3646 19.7179 98.2806 20.3941C99.1967 21.0702 100.456 21.4083 102.059 21.4083C103.496 21.4083 104.578 21.1112 105.307 20.517C106.036 19.9228 106.4 19.1442 106.4 18.1811C106.4 17.5459 106.213 17.0029 105.838 16.5522C105.463 16.1014 104.911 15.6916 104.183 15.3227C103.475 14.9334 102.434 14.4724 101.06 13.9397C99.5402 13.3659 98.3327 12.8434 97.4375 12.3722C96.5631 11.9009 95.8344 11.2862 95.2515 10.528C94.6685 9.74941 94.3771 8.77612 94.3771 7.60818C94.3771 5.84602 95.0121 4.46294 96.282 3.45892C97.5728 2.4549 99.3112 1.95289 101.497 1.95289C103.038 1.95289 104.391 2.20901 105.557 2.72127C106.723 3.23352 107.618 3.95068 108.242 4.87274C108.888 5.7948 109.211 6.86029 109.211 8.06921V8.68392C109.211 8.88882 109.106 8.99127 108.898 8.99127H106.556C106.348 8.99127 106.244 8.88882 106.244 8.68392V8.22289C106.244 7.1574 105.807 6.27632 104.932 5.57965C104.079 4.86249 102.892 4.50392 101.372 4.50392C100.081 4.50392 99.0821 4.77029 98.3743 5.30303C97.6665 5.81529 97.3125 6.56318 97.3125 7.54671C97.3125 8.22289 97.4895 8.77612 97.8434 9.20642C98.1973 9.63671 98.7178 10.026 99.4048 10.3744C100.113 10.7022 101.185 11.1325 102.621 11.6652C104.099 12.239 105.297 12.7717 106.213 13.2635C107.129 13.7348 107.889 14.3699 108.492 15.1691C109.096 15.9477 109.398 16.921 109.398 18.0889C109.398 19.8921 108.721 21.3264 107.368 22.3919C106.036 23.4369 104.193 23.9594 101.841 23.9594Z" fill="#1C2122"/>
<path d="M119.575 23.9594C118.034 23.9594 116.691 23.5803 115.546 22.8222C114.401 22.0435 113.6 20.9678 113.142 19.5949C112.767 18.4885 112.58 17.2386 112.58 15.8452C112.58 14.3904 112.757 13.161 113.111 12.157C113.569 10.8047 114.37 9.74941 115.515 8.99127C116.66 8.21264 118.024 7.82333 119.606 7.82333C121.105 7.82333 122.406 8.21264 123.51 8.99127C124.634 9.74941 125.435 10.7944 125.914 12.1263C126.289 13.1713 126.476 14.4007 126.476 15.8145C126.476 17.2488 126.289 18.509 125.914 19.5949C125.456 20.9678 124.665 22.0435 123.541 22.8222C122.417 23.5803 121.095 23.9594 119.575 23.9594ZM119.575 21.4083C120.408 21.4083 121.136 21.1829 121.761 20.7322C122.385 20.2609 122.833 19.6052 123.104 18.7651C123.333 17.9865 123.447 17.0234 123.447 15.876C123.447 14.7285 123.343 13.7757 123.135 13.0176C122.864 12.1775 122.417 11.5321 121.792 11.0813C121.168 10.61 120.408 10.3744 119.512 10.3744C118.659 10.3744 117.92 10.61 117.295 11.0813C116.671 11.5321 116.223 12.1775 115.952 13.0176C115.723 13.7347 115.609 14.6875 115.609 15.876C115.609 17.0644 115.723 18.0274 115.952 18.7651C116.202 19.6052 116.639 20.2609 117.264 20.7322C117.909 21.1829 118.68 21.4083 119.575 21.4083Z" fill="#1C2122"/>
<path d="M130.714 23.7135C130.505 23.7135 130.401 23.611 130.401 23.4061V2.50612C130.401 2.30122 130.505 2.19877 130.714 2.19877H133.087C133.295 2.19877 133.399 2.30122 133.399 2.50612V23.4061C133.399 23.611 133.295 23.7135 133.087 23.7135H130.714Z" fill="#1C2122"/>
<path d="M147.213 8.37656C147.213 8.17166 147.317 8.06921 147.525 8.06921H149.868C150.076 8.06921 150.18 8.17166 150.18 8.37656V23.4061C150.18 23.611 150.076 23.7135 149.868 23.7135H147.525C147.317 23.7135 147.213 23.611 147.213 23.4061V22.2689C147.213 22.2279 147.192 22.2074 147.151 22.2074C147.13 22.187 147.099 22.1972 147.057 22.2382C146.224 23.3651 144.944 23.9286 143.216 23.9286C142.196 23.9286 141.249 23.734 140.374 23.3447C139.521 22.9553 138.834 22.3816 138.313 21.6235C137.793 20.8653 137.532 19.9433 137.532 18.8573V8.37656C137.532 8.17166 137.637 8.06921 137.845 8.06921H140.187C140.395 8.06921 140.499 8.17166 140.499 8.37656V17.9352C140.499 19.0007 140.78 19.8408 141.342 20.4555C141.925 21.0702 142.737 21.3776 143.778 21.3776C144.819 21.3776 145.652 21.0702 146.276 20.4555C146.901 19.8203 147.213 18.9802 147.213 17.9352V8.37656Z" fill="#1C2122"/>
<path d="M162.393 10.1899C162.393 10.3948 162.289 10.4973 162.081 10.4973H158.708C158.625 10.4973 158.583 10.5383 158.583 10.6202V18.7651C158.583 19.6257 158.781 20.2506 159.176 20.6399C159.572 21.0088 160.186 21.1932 161.019 21.1932H161.924C162.133 21.1932 162.237 21.2956 162.237 21.5005V23.4061C162.237 23.611 162.133 23.7135 161.924 23.7135C161.258 23.7545 160.779 23.7749 160.488 23.7749C158.906 23.7749 157.709 23.4983 156.897 22.9451C156.106 22.3714 155.71 21.3264 155.71 19.8101V10.6202C155.71 10.5383 155.668 10.4973 155.585 10.4973H153.68C153.472 10.4973 153.368 10.3948 153.368 10.1899V8.37656C153.368 8.17166 153.472 8.06921 153.68 8.06921H155.585C155.668 8.06921 155.71 8.02823 155.71 7.94627V4.3195C155.71 4.1146 155.814 4.01215 156.022 4.01215H158.271C158.479 4.01215 158.583 4.1146 158.583 4.3195V7.94627C158.583 8.02823 158.625 8.06921 158.708 8.06921H162.081C162.289 8.06921 162.393 8.17166 162.393 8.37656V10.1899Z" fill="#1C2122"/>
<path d="M167.893 5.61039C167.31 5.61039 166.832 5.42597 166.457 5.05715C166.082 4.68833 165.895 4.21705 165.895 3.64333C165.895 3.0696 166.082 2.59833 166.457 2.2295C166.832 1.86068 167.31 1.67627 167.893 1.67627C168.476 1.67627 168.955 1.86068 169.33 2.2295C169.705 2.59833 169.892 3.0696 169.892 3.64333C169.892 4.21705 169.705 4.68833 169.33 5.05715C168.955 5.42597 168.476 5.61039 167.893 5.61039ZM166.644 23.6827C166.436 23.6827 166.332 23.5803 166.332 23.3754V8.37656C166.332 8.17166 166.436 8.06921 166.644 8.06921H169.018C169.226 8.06921 169.33 8.17166 169.33 8.37656V23.3754C169.33 23.5803 169.226 23.6827 169.018 23.6827H166.644Z" fill="#1C2122"/>
<path d="M180.537 23.9594C178.997 23.9594 177.654 23.5803 176.509 22.8222C175.364 22.0435 174.562 20.9678 174.104 19.5949C173.729 18.4885 173.542 17.2386 173.542 15.8452C173.542 14.3904 173.719 13.161 174.073 12.157C174.531 10.8047 175.333 9.74941 176.478 8.99127C177.623 8.21264 178.986 7.82333 180.568 7.82333C182.067 7.82333 183.369 8.21264 184.472 8.99127C185.596 9.74941 186.398 10.7944 186.877 12.1263C187.251 13.1713 187.439 14.4007 187.439 15.8145C187.439 17.2488 187.251 18.509 186.877 19.5949C186.419 20.9678 185.627 22.0435 184.503 22.8222C183.379 23.5803 182.057 23.9594 180.537 23.9594ZM180.537 21.4083C181.37 21.4083 182.099 21.1829 182.723 20.7322C183.348 20.2609 183.795 19.6052 184.066 18.7651C184.295 17.9865 184.41 17.0234 184.41 15.876C184.41 14.7285 184.305 13.7757 184.097 13.0176C183.827 12.1775 183.379 11.5321 182.754 11.0813C182.13 10.61 181.37 10.3744 180.475 10.3744C179.621 10.3744 178.882 10.61 178.258 11.0813C177.633 11.5321 177.185 12.1775 176.915 13.0176C176.686 13.7347 176.571 14.6875 176.571 15.876C176.571 17.0644 176.686 18.0274 176.915 18.7651C177.165 19.6052 177.602 20.2609 178.226 20.7322C178.872 21.1829 179.642 21.4083 180.537 21.4083Z" fill="#1C2122"/>
<path d="M198.453 7.85406C200.16 7.85406 201.513 8.34583 202.512 9.32936C203.512 10.2924 204.011 11.6038 204.011 13.2635V23.4061C204.011 23.611 203.907 23.7135 203.699 23.7135H201.326C201.117 23.7135 201.013 23.611 201.013 23.4061V13.8474C201.013 12.8229 200.711 11.9931 200.108 11.3579C199.504 10.7227 198.702 10.4051 197.703 10.4051C196.725 10.4051 195.923 10.7227 195.298 11.3579C194.674 11.9931 194.362 12.8127 194.362 13.8167V23.4061C194.362 23.611 194.258 23.7135 194.049 23.7135H191.676C191.468 23.7135 191.364 23.611 191.364 23.4061V8.37656C191.364 8.17166 191.468 8.06921 191.676 8.06921H194.049C194.258 8.06921 194.362 8.17166 194.362 8.37656V9.48303C194.362 9.52401 194.372 9.55475 194.393 9.57524C194.434 9.59573 194.466 9.58548 194.487 9.5445C195.382 8.41754 196.704 7.85406 198.453 7.85406Z" fill="#1C2122"/>
<path d="M213.879 23.8979C212.63 23.8979 211.527 23.7135 210.569 23.3447C209.632 22.9758 208.903 22.4738 208.383 21.8386C207.862 21.1829 207.602 20.4658 207.602 19.6872V19.3491C207.602 19.1442 207.706 19.0417 207.914 19.0417H210.163C210.371 19.0417 210.475 19.1442 210.475 19.3491V19.5027C210.475 20.0765 210.787 20.5785 211.412 21.0088C212.057 21.4391 212.869 21.6542 213.848 21.6542C214.785 21.6542 215.545 21.4596 216.127 21.0702C216.71 20.6604 217.002 20.1482 217.002 19.5335C217.002 18.9393 216.731 18.4987 216.19 18.2119C215.649 17.9045 214.774 17.5869 213.567 17.2591C212.38 16.9312 211.381 16.6034 210.569 16.2755C209.778 15.9272 209.101 15.4457 208.539 14.831C207.998 14.1958 207.727 13.3864 207.727 12.4029C207.727 11.03 208.268 9.94406 209.351 9.14495C210.454 8.32534 211.912 7.91553 213.723 7.91553C214.93 7.91553 215.992 8.11019 216.908 8.4995C217.845 8.86833 218.563 9.39083 219.063 10.067C219.563 10.7432 219.812 11.5013 219.812 12.3414V12.4336C219.812 12.6385 219.708 12.741 219.5 12.741H217.314C217.106 12.741 217.002 12.6385 217.002 12.4336V12.3414C217.002 11.7472 216.7 11.2554 216.096 10.8661C215.513 10.4563 214.712 10.2514 213.692 10.2514C212.776 10.2514 212.026 10.4256 211.443 10.7739C210.881 11.1222 210.6 11.5935 210.6 12.1877C210.6 12.782 210.871 13.2327 211.412 13.5401C211.974 13.8474 212.869 14.1753 214.098 14.5236C215.305 14.8515 216.304 15.1793 217.096 15.5072C217.908 15.8145 218.595 16.2858 219.157 16.921C219.719 17.5357 220 18.345 220 19.3491C220 20.7424 219.438 21.8489 218.313 22.6685C217.21 23.4881 215.732 23.8979 213.879 23.8979Z" fill="#1C2122"/>
<path d="M97.0918 35.7647L102.77 28.5L108.448 35.7647L114.125 28.5L119.803 35.7647L125.481 28.5L131.159 35.7647L136.837 28.5L142.515 35.7647L148.193 28.5L153.871 35.7647L159.548 28.5" stroke="#F9C7C5" stroke-width="4" stroke-linejoin="round"/>
<path d="M153.87 35.7647L159.548 28.5L165.226 35.7647L170.904 28.5L176.582 35.7647L182.259 28.5L187.937 35.7647L193.615 28.5L199.293 35.7647L204.971 28.5L210.649 35.7647L216.327 28.5" stroke="#F9C7C5" stroke-width="4" stroke-linejoin="round"/>
<defs>
<clipPath id="clip0_427_1660">
<rect width="38.6096" height="38" fill="white" transform="matrix(-1 0 0 1 38.6094 0)"/>
</clipPath>
</defs>
</svg>
