<svg width="220" height="38" viewBox="0 0 220 38" fill="none" xmlns="http://www.w3.org/2000/svg">
<g clip-path="url(#clip0_427_1678)">
<path d="M37.4098 16.5813C37.5914 16.5778 37.7713 16.6158 37.9355 16.6922C38.0997 16.7686 38.2437 16.8813 38.3562 17.0216C38.4687 17.1619 38.5467 17.326 38.5841 17.5009C38.6215 17.6758 38.6173 17.8568 38.5718 18.0299C35.779 28.6018 26.0642 35.9864 14.9521 35.9864C14.6398 35.9864 14.3403 35.8643 14.1194 35.647C13.8986 35.4296 13.7745 35.1348 13.7745 34.8274C13.7745 34.5201 13.8986 34.2253 14.1194 34.0079C14.3403 33.7906 14.6398 33.6684 14.9521 33.6684C19.8317 33.6701 24.5739 32.0785 28.4359 29.1431C32.2979 26.2077 35.0614 22.0943 36.2935 17.4474C36.3582 17.203 36.5023 16.9861 36.7038 16.8297C36.9053 16.6734 37.1532 16.5861 37.4098 16.5813Z" fill="#5A77E0"/>
<path d="M19.8488 2.36073C19.6326 2.14398 19.3386 2.01942 19.03 2.01386C18.8736 2.01108 18.7182 2.03917 18.5728 2.09617C18.4275 2.15317 18.2952 2.2381 18.1836 2.346C18.0719 2.4539 17.9833 2.58261 17.9228 2.72461C17.8623 2.8666 17.8312 3.01904 17.8312 3.17302V25.2034C17.8312 25.5107 17.9552 25.8054 18.176 26.0228C18.3967 26.2401 18.6962 26.3623 19.0084 26.3624C19.3208 26.3624 19.6203 26.2402 19.8411 26.0229C20.062 25.8055 20.186 25.5107 20.186 25.2034V3.17286C20.1861 2.86911 20.065 2.57749 19.8488 2.36073Z" fill="#87E7F8"/>
<path d="M1.65942 8.71373C1.5192 8.65236 1.36816 8.61848 1.21477 8.61398C0.981686 8.60753 0.751881 8.669 0.554337 8.79093C0.356791 8.91285 0.20035 9.08962 0.104744 9.29893C-0.0215454 9.5796 -0.0298653 9.89806 0.0815983 10.1847C0.193062 10.4714 0.415251 10.7031 0.699654 10.8291L8.39903 14.212L0.699654 17.6072C0.452963 17.715 0.251396 17.9029 0.128698 18.1396C0.00600243 18.3762 -0.0303783 18.6471 0.0256519 18.907C0.0816841 19.1669 0.226727 19.3999 0.436491 19.5671C0.646255 19.7343 0.908009 19.8255 1.17793 19.8254C1.34395 19.8247 1.50798 19.7898 1.65942 19.7228L11.7659 15.2683C11.9728 15.1764 12.1483 15.0277 12.2715 14.8401C12.3946 14.6525 12.4601 14.4339 12.4601 14.2105C12.4601 13.9872 12.3946 13.7685 12.2715 13.5809C12.1483 13.3933 11.9728 13.2446 11.7659 13.1528L1.65942 8.71373Z" fill="#87E7F8"/>
</g>
<path d="M65.8149 2.38367C65.919 2.26073 66.0439 2.19926 66.1896 2.19926H68.563C68.7711 2.19926 68.8752 2.30171 68.8752 2.50661V23.4066C68.8752 23.6115 68.7711 23.714 68.563 23.714H66.1896C65.9814 23.714 65.8773 23.6115 65.8773 23.4066V7.67014C65.8773 7.60867 65.8565 7.56769 65.8149 7.5472C65.7732 7.52671 65.742 7.5472 65.7212 7.60867L61.2555 14.309C61.1723 14.4319 61.0474 14.4934 60.8808 14.4934H59.6941C59.5484 14.4934 59.4235 14.4319 59.3194 14.309L54.8225 7.67014C54.8017 7.60867 54.7705 7.58818 54.7288 7.60867C54.6872 7.62916 54.6664 7.67014 54.6664 7.73161V23.4066C54.6664 23.6115 54.5623 23.714 54.3541 23.714H51.9807C51.7726 23.714 51.6685 23.6115 51.6685 23.4066V2.50661C51.6685 2.30171 51.7726 2.19926 51.9807 2.19926H54.3541C54.5206 2.19926 54.6456 2.26073 54.7288 2.38367L60.1938 10.4363C60.2146 10.4568 60.2458 10.4671 60.2875 10.4671C60.3291 10.4671 60.3603 10.4568 60.3811 10.4363L65.8149 2.38367Z" fill="#EEF3FA"/>
<path d="M73.1486 29.8303C73.0029 29.8303 72.93 29.7278 72.93 29.5229V27.7095C72.93 27.5046 73.0341 27.4022 73.2423 27.4022H73.3048C74.1375 27.3817 74.7933 27.2793 75.2722 27.0948C75.751 26.9104 76.1465 26.5621 76.4588 26.0498C76.7711 25.5581 77.073 24.8102 77.3645 23.8062C77.3853 23.7857 77.3853 23.7549 77.3645 23.714C77.3645 23.6525 77.3645 23.6218 77.3645 23.6218L72.1493 8.40779L72.1181 8.28484C72.1181 8.14141 72.2118 8.0697 72.3992 8.0697H74.9286C75.116 8.0697 75.2409 8.15166 75.3034 8.31558L78.8322 19.9028C78.853 19.9438 78.8842 19.9643 78.9259 19.9643C78.9675 19.9643 78.9987 19.9438 79.0195 19.9028L82.5171 8.31558C82.5796 8.15166 82.7045 8.0697 82.8919 8.0697H85.3589C85.5879 8.0697 85.6712 8.18239 85.6087 8.40779L79.9252 24.7897C79.4463 26.2035 78.9675 27.2485 78.4887 27.9247C78.0098 28.6214 77.3853 29.1131 76.615 29.4C75.8447 29.6869 74.7621 29.8303 73.3672 29.8303H73.1486Z" fill="#EEF3FA"/>
<path d="M101.841 23.9598C100.238 23.9598 98.8427 23.714 97.656 23.2222C96.4901 22.7304 95.5845 22.0338 94.9391 21.1322C94.3146 20.2306 94.0023 19.1754 94.0023 17.9665V17.0751C94.0023 16.8702 94.1064 16.7678 94.3146 16.7678H96.5942C96.8024 16.7678 96.9065 16.8702 96.9065 17.0751V17.8128C96.9065 18.8578 97.3645 19.7184 98.2806 20.3945C99.1966 21.0707 100.456 21.4088 102.059 21.4088C103.496 21.4088 104.578 21.1117 105.307 20.5175C106.036 19.9233 106.4 19.1446 106.4 18.1816C106.4 17.5464 106.213 17.0034 105.838 16.5526C105.463 16.1019 104.911 15.692 104.183 15.3232C103.475 14.9339 102.434 14.4729 101.06 13.9401C99.5401 13.3664 98.3326 12.8439 97.4374 12.3726C96.563 11.9014 95.8344 11.2867 95.2514 10.5285C94.6685 9.74989 94.377 8.77661 94.377 7.60867C94.377 5.84651 95.012 4.46342 96.282 3.4594C97.5727 2.45538 99.3111 1.95338 101.497 1.95338C103.038 1.95338 104.391 2.2095 105.557 2.72176C106.723 3.23401 107.618 3.95117 108.242 4.87323C108.888 5.79529 109.21 6.86078 109.21 8.0697V8.6844C109.21 8.88931 109.106 8.99176 108.898 8.99176H106.556C106.348 8.99176 106.244 8.88931 106.244 8.6844V8.22337C106.244 7.15788 105.807 6.27681 104.932 5.58014C104.079 4.86298 102.892 4.5044 101.372 4.5044C100.081 4.5044 99.0821 4.77078 98.3743 5.30352C97.6664 5.81578 97.3125 6.56367 97.3125 7.5472C97.3125 8.22337 97.4894 8.77661 97.8434 9.2069C98.1973 9.6372 98.7178 10.0265 99.4048 10.3748C100.113 10.7027 101.185 11.133 102.621 11.6657C104.099 12.2395 105.297 12.7722 106.213 13.264C107.129 13.7352 107.888 14.3704 108.492 15.1695C109.096 15.9482 109.398 16.9215 109.398 18.0894C109.398 19.8925 108.721 21.3269 107.368 22.3923C106.036 23.4373 104.193 23.9598 101.841 23.9598Z" fill="#EEF3FA"/>
<path d="M119.575 23.9598C118.034 23.9598 116.691 23.5808 115.546 22.8226C114.401 22.044 113.6 20.9683 113.142 19.5954C112.767 18.489 112.58 17.2391 112.58 15.8457C112.58 14.3909 112.757 13.1615 113.111 12.1575C113.569 10.8051 114.37 9.74989 115.515 8.99176C116.66 8.21313 118.024 7.82382 119.606 7.82382C121.105 7.82382 122.406 8.21313 123.51 8.99176C124.634 9.74989 125.435 10.7949 125.914 12.1268C126.289 13.1718 126.476 14.4012 126.476 15.815C126.476 17.2493 126.289 18.5095 125.914 19.5954C125.456 20.9683 124.665 22.044 123.541 22.8226C122.417 23.5808 121.095 23.9598 119.575 23.9598ZM119.575 21.4088C120.408 21.4088 121.136 21.1834 121.761 20.7326C122.385 20.2614 122.833 19.6057 123.104 18.7656C123.333 17.987 123.447 17.0239 123.447 15.8765C123.447 14.729 123.343 13.7762 123.135 13.0181C122.864 12.178 122.417 11.5325 121.792 11.0818C121.167 10.6105 120.408 10.3748 119.512 10.3748C118.659 10.3748 117.92 10.6105 117.295 11.0818C116.671 11.5325 116.223 12.178 115.952 13.0181C115.723 13.7352 115.609 14.688 115.609 15.8765C115.609 17.0649 115.723 18.0279 115.952 18.7656C116.202 19.6057 116.639 20.2614 117.264 20.7326C117.909 21.1834 118.68 21.4088 119.575 21.4088Z" fill="#EEF3FA"/>
<path d="M130.714 23.714C130.505 23.714 130.401 23.6115 130.401 23.4066V2.50661C130.401 2.30171 130.505 2.19926 130.714 2.19926H133.087C133.295 2.19926 133.399 2.30171 133.399 2.50661V23.4066C133.399 23.6115 133.295 23.714 133.087 23.714H130.714Z" fill="#EEF3FA"/>
<path d="M147.213 8.37705C147.213 8.17215 147.317 8.0697 147.525 8.0697H149.867C150.076 8.0697 150.18 8.17215 150.18 8.37705V23.4066C150.18 23.6115 150.076 23.714 149.867 23.714H147.525C147.317 23.714 147.213 23.6115 147.213 23.4066V22.2694C147.213 22.2284 147.192 22.2079 147.151 22.2079C147.13 22.1874 147.099 22.1977 147.057 22.2387C146.224 23.3656 144.944 23.9291 143.216 23.9291C142.196 23.9291 141.248 23.7345 140.374 23.3451C139.521 22.9558 138.833 22.3821 138.313 21.624C137.793 20.8658 137.532 19.9438 137.532 18.8578V8.37705C137.532 8.17215 137.636 8.0697 137.845 8.0697H140.187C140.395 8.0697 140.499 8.17215 140.499 8.37705V17.9357C140.499 19.0012 140.78 19.8413 141.342 20.456C141.925 21.0707 142.737 21.3781 143.778 21.3781C144.819 21.3781 145.652 21.0707 146.276 20.456C146.901 19.8208 147.213 18.9807 147.213 17.9357V8.37705Z" fill="#EEF3FA"/>
<path d="M162.393 10.1904C162.393 10.3953 162.289 10.4978 162.08 10.4978H158.708C158.624 10.4978 158.583 10.5388 158.583 10.6207V18.7656C158.583 19.6262 158.781 20.2511 159.176 20.6404C159.572 21.0093 160.186 21.1937 161.019 21.1937H161.924C162.132 21.1937 162.237 21.2961 162.237 21.501V23.4066C162.237 23.6115 162.132 23.714 161.924 23.714C161.258 23.7549 160.779 23.7754 160.488 23.7754C158.906 23.7754 157.708 23.4988 156.897 22.9456C156.105 22.3719 155.71 21.3269 155.71 19.8106V10.6207C155.71 10.5388 155.668 10.4978 155.585 10.4978H153.68C153.472 10.4978 153.368 10.3953 153.368 10.1904V8.37705C153.368 8.17215 153.472 8.0697 153.68 8.0697H155.585C155.668 8.0697 155.71 8.02872 155.71 7.94676V4.31999C155.71 4.11509 155.814 4.01264 156.022 4.01264H158.271C158.479 4.01264 158.583 4.11509 158.583 4.31999V7.94676C158.583 8.02872 158.624 8.0697 158.708 8.0697H162.08C162.289 8.0697 162.393 8.17215 162.393 8.37705V10.1904Z" fill="#EEF3FA"/>
<path d="M167.893 5.61087C167.31 5.61087 166.832 5.42646 166.457 5.05764C166.082 4.68882 165.895 4.21754 165.895 3.64381C165.895 3.07009 166.082 2.59882 166.457 2.22999C166.832 1.86117 167.31 1.67676 167.893 1.67676C168.476 1.67676 168.955 1.86117 169.33 2.22999C169.705 2.59882 169.892 3.07009 169.892 3.64381C169.892 4.21754 169.705 4.68882 169.33 5.05764C168.955 5.42646 168.476 5.61087 167.893 5.61087ZM166.644 23.6832C166.436 23.6832 166.332 23.5808 166.332 23.3759V8.37705C166.332 8.17215 166.436 8.0697 166.644 8.0697H169.017C169.226 8.0697 169.33 8.17215 169.33 8.37705V23.3759C169.33 23.5808 169.226 23.6832 169.017 23.6832H166.644Z" fill="#EEF3FA"/>
<path d="M180.537 23.9598C178.996 23.9598 177.654 23.5808 176.509 22.8226C175.364 22.044 174.562 20.9683 174.104 19.5954C173.729 18.489 173.542 17.2391 173.542 15.8457C173.542 14.3909 173.719 13.1615 174.073 12.1575C174.531 10.8051 175.332 9.74989 176.477 8.99176C177.622 8.21313 178.986 7.82382 180.568 7.82382C182.067 7.82382 183.368 8.21313 184.472 8.99176C185.596 9.74989 186.398 10.7949 186.876 12.1268C187.251 13.1718 187.439 14.4012 187.439 15.815C187.439 17.2493 187.251 18.5095 186.876 19.5954C186.418 20.9683 185.627 22.044 184.503 22.8226C183.379 23.5808 182.057 23.9598 180.537 23.9598ZM180.537 21.4088C181.37 21.4088 182.098 21.1834 182.723 20.7326C183.348 20.2614 183.795 19.6057 184.066 18.7656C184.295 17.987 184.409 17.0239 184.409 15.8765C184.409 14.729 184.305 13.7762 184.097 13.0181C183.826 12.178 183.379 11.5325 182.754 11.0818C182.13 10.6105 181.37 10.3748 180.475 10.3748C179.621 10.3748 178.882 10.6105 178.257 11.0818C177.633 11.5325 177.185 12.178 176.915 13.0181C176.686 13.7352 176.571 14.688 176.571 15.8765C176.571 17.0649 176.686 18.0279 176.915 18.7656C177.164 19.6057 177.602 20.2614 178.226 20.7326C178.872 21.1834 179.642 21.4088 180.537 21.4088Z" fill="#EEF3FA"/>
<path d="M198.452 7.85455C200.159 7.85455 201.513 8.34632 202.512 9.32984C203.511 10.2929 204.011 11.6043 204.011 13.264V23.4066C204.011 23.6115 203.907 23.714 203.699 23.714H201.325C201.117 23.714 201.013 23.6115 201.013 23.4066V13.8479C201.013 12.8234 200.711 11.9936 200.107 11.3584C199.504 10.7232 198.702 10.4056 197.703 10.4056C196.724 10.4056 195.923 10.7232 195.298 11.3584C194.674 11.9936 194.361 12.8132 194.361 13.8172V23.4066C194.361 23.6115 194.257 23.714 194.049 23.714H191.676C191.468 23.714 191.364 23.6115 191.364 23.4066V8.37705C191.364 8.17215 191.468 8.0697 191.676 8.0697H194.049C194.257 8.0697 194.361 8.17215 194.361 8.37705V9.48352C194.361 9.5245 194.372 9.55524 194.393 9.57573C194.434 9.59622 194.466 9.58597 194.486 9.54499C195.382 8.41803 196.704 7.85455 198.452 7.85455Z" fill="#EEF3FA"/>
<path d="M213.879 23.8984C212.63 23.8984 211.526 23.714 210.569 23.3451C209.632 22.9763 208.903 22.4743 208.383 21.8391C207.862 21.1834 207.602 20.4663 207.602 19.6876V19.3495C207.602 19.1446 207.706 19.0422 207.914 19.0422H210.163C210.371 19.0422 210.475 19.1446 210.475 19.3495V19.5032C210.475 20.077 210.787 20.579 211.412 21.0093C212.057 21.4396 212.869 21.6547 213.848 21.6547C214.784 21.6547 215.544 21.46 216.127 21.0707C216.71 20.6609 217.002 20.1487 217.002 19.534C217.002 18.9397 216.731 18.4992 216.19 18.2123C215.648 17.905 214.774 17.5874 213.567 17.2596C212.38 16.9317 211.381 16.6039 210.569 16.276C209.778 15.9277 209.101 15.4462 208.539 14.8315C207.998 14.1963 207.727 13.3869 207.727 12.4034C207.727 11.0305 208.268 9.94455 209.351 9.14543C210.454 8.32583 211.911 7.91602 213.723 7.91602C214.93 7.91602 215.992 8.11068 216.908 8.49999C217.845 8.86881 218.563 9.39132 219.063 10.0675C219.562 10.7437 219.812 11.5018 219.812 12.3419V12.4341C219.812 12.639 219.708 12.7415 219.5 12.7415H217.314C217.106 12.7415 217.002 12.639 217.002 12.4341V12.3419C217.002 11.7477 216.7 11.2559 216.096 10.8666C215.513 10.4568 214.712 10.2519 213.692 10.2519C212.775 10.2519 212.026 10.4261 211.443 10.7744C210.881 11.1227 210.6 11.594 210.6 12.1882C210.6 12.7824 210.871 13.2332 211.412 13.5406C211.974 13.8479 212.869 14.1758 214.097 14.5241C215.305 14.852 216.304 15.1798 217.095 15.5076C217.907 15.815 218.594 16.2863 219.156 16.9215C219.719 17.5362 220 18.3455 220 19.3495C220 20.7429 219.437 21.8494 218.313 22.669C217.21 23.4886 215.732 23.8984 213.879 23.8984Z" fill="#EEF3FA"/>
<path d="M97.0918 35.7652L102.77 28.5005L108.448 35.7652L114.125 28.5005L119.803 35.7652L125.481 28.5005L131.159 35.7652L136.837 28.5005L142.515 35.7652L148.193 28.5005L153.87 35.7652L159.548 28.5005" stroke="#D89E9C" stroke-width="4" stroke-linejoin="round"/>
<path d="M153.87 35.7652L159.548 28.5005L165.226 35.7652L170.904 28.5005L176.582 35.7652L182.259 28.5005L187.937 35.7652L193.615 28.5005L199.293 35.7652L204.971 28.5005L210.649 35.7652L216.327 28.5005" stroke="#D89E9C" stroke-width="4" stroke-linejoin="round"/>
<defs>
<clipPath id="clip0_427_1678">
<rect width="38.6095" height="38" fill="white" transform="matrix(-1 0 0 1 38.6094 0)"/>
</clipPath>
</defs>
</svg>
